<svg xmlns="http://www.w3.org/2000/svg" xmlns:xlink="http://www.w3.org/1999/xlink" width="800" zoomAndPan="magnify" viewBox="0 0 375 374.999991" height="200" preserveAspectRatio="xMidYMid meet" version="1.0"><defs><g/></defs><rect x="-37.5" width="450" fill="#ffffff" y="-37.499999" height="449.999989" fill-opacity="1"/><rect x="-37.5" width="450" fill="#ffffff" y="-37.499999" height="449.999989" fill-opacity="1"/><g fill="#000000" fill-opacity="1"><g transform="translate(40.804689, 209.387228)"><g><path d="M 59.046875 -61.511719 L 43.910156 -61.511719 C 43.734375 -61.511719 43.648438 -61.421875 43.648438 -61.246094 C 43.648438 -61.160156 43.734375 -61.070312 43.910156 -61.070312 L 56.496094 -61.070312 C 54.207031 -60.101562 52.445312 -58.253906 51.566406 -55.964844 L 51.566406 -59.046875 C 51.566406 -59.132812 51.480469 -59.308594 51.390625 -59.308594 C 51.214844 -59.308594 51.125 -59.132812 51.125 -59.046875 L 51.125 -20.679688 C 51.125 -10.382812 42.765625 -2.023438 32.472656 -2.023438 C 22.175781 -2.023438 13.816406 -10.382812 13.816406 -20.679688 L 13.816406 -56.496094 C 13.816406 -58.78125 15.574219 -60.804688 17.953125 -60.980469 C 18.039062 -60.980469 18.214844 -61.070312 18.390625 -61.070312 C 18.480469 -61.070312 18.65625 -61.160156 18.65625 -61.246094 C 18.65625 -61.421875 18.480469 -61.511719 18.390625 -61.511719 L 3.257812 -61.511719 C 3.167969 -61.511719 3.078125 -61.421875 3.078125 -61.246094 C 3.078125 -61.160156 3.167969 -61.070312 3.257812 -61.070312 L 15.3125 -61.070312 C 10.824219 -59.664062 7.832031 -55.527344 7.832031 -50.949219 L 7.832031 -20.679688 C 7.832031 -8.625 17.597656 1.230469 29.742188 1.230469 C 41.445312 1.230469 51.039062 -8.007812 51.566406 -19.710938 C 51.566406 -20.0625 51.566406 -20.328125 51.566406 -20.679688 L 51.566406 -53.328125 C 51.566406 -57.460938 55.085938 -61.070312 59.046875 -61.070312 C 59.132812 -61.070312 59.222656 -61.160156 59.222656 -61.246094 C 59.222656 -61.421875 59.132812 -61.511719 59.046875 -61.511719 Z M 59.046875 -61.511719 "/></g></g></g><g fill="#000000" fill-opacity="1"><g transform="translate(101.961992, 209.387228)"><g><path d="M 49.804688 -61.335938 C 49.804688 -61.421875 49.71875 -61.511719 49.628906 -61.511719 L 3.785156 -61.511719 C 3.695312 -61.511719 3.609375 -61.421875 3.609375 -61.335938 L 1.054688 -56.054688 C 0.96875 -56.054688 0.96875 -55.964844 1.054688 -55.878906 C 1.054688 -55.789062 1.054688 -55.789062 1.144531 -55.789062 C 1.144531 -55.703125 1.230469 -55.703125 1.230469 -55.703125 C 1.320312 -55.703125 1.40625 -55.789062 1.496094 -55.878906 C 2.375 -57.8125 5.894531 -61.070312 19.09375 -61.070312 L 31.152344 -61.070312 C 26.75 -59.664062 23.671875 -55.527344 23.671875 -50.949219 L 23.671875 -4.664062 C 23.671875 -2.375 21.910156 -0.441406 19.625 -0.175781 C 19.449219 -0.175781 19.269531 -0.175781 19.09375 -0.175781 C 19.007812 -0.175781 18.917969 -0.0898438 18.917969 0.0898438 C 18.917969 0.175781 19.007812 0.351562 19.09375 0.351562 L 34.230469 0.351562 C 34.40625 0.351562 34.496094 0.175781 34.496094 0.0898438 C 34.496094 -0.0898438 34.40625 -0.175781 34.230469 -0.175781 L 22.261719 -0.175781 C 26.664062 -1.496094 29.742188 -5.632812 29.742188 -10.296875 L 29.742188 -56.496094 C 29.742188 -58.78125 31.503906 -60.804688 33.792969 -60.980469 C 33.96875 -60.980469 34.144531 -61.070312 34.230469 -61.070312 C 47.519531 -61.070312 51.039062 -57.8125 51.917969 -55.878906 C 52.007812 -55.789062 52.09375 -55.703125 52.183594 -55.703125 C 52.183594 -55.703125 52.183594 -55.703125 52.269531 -55.789062 C 52.269531 -55.789062 52.359375 -55.789062 52.359375 -55.878906 C 52.359375 -55.964844 52.359375 -56.054688 52.359375 -56.054688 Z M 49.804688 -61.335938 "/></g></g></g><g fill="#000000" fill-opacity="1"><g transform="translate(155.463633, 209.387228)"><g><path d="M 13.289062 -53.152344 C 0.878906 -40.65625 0.878906 -20.503906 13.289062 -8.097656 C 19.269531 -2.113281 27.367188 1.230469 35.816406 1.230469 C 44.261719 1.230469 52.359375 -2.113281 58.34375 -8.097656 C 64.328125 -14.078125 67.671875 -22.175781 67.671875 -30.625 C 67.671875 -39.070312 64.328125 -47.167969 58.34375 -53.152344 C 45.847656 -65.558594 25.785156 -65.558594 13.289062 -53.152344 Z M 13.640625 -52.796875 C 17.6875 -56.757812 23.054688 -58.695312 28.953125 -58.695312 C 37.046875 -58.695312 46.023438 -55 53.152344 -47.957031 C 59.046875 -41.976562 62.832031 -34.582031 63.710938 -27.191406 C 64.679688 -19.710938 62.566406 -13.023438 57.992188 -8.449219 C 48.398438 1.144531 30.710938 -1.054688 18.480469 -13.289062 C 6.246094 -25.519531 4.046875 -43.207031 13.640625 -52.796875 Z M 13.640625 -52.796875 "/></g></g></g><g fill="#000000" fill-opacity="1"><g transform="translate(227.268473, 209.387228)"><g><path d="M 32.117188 -61.511719 L 3.871094 -61.511719 C 3.785156 -61.511719 3.695312 -61.421875 3.695312 -61.246094 C 3.695312 -61.160156 3.785156 -61.070312 3.871094 -61.070312 L 15.925781 -61.070312 C 11.441406 -59.664062 8.449219 -55.527344 8.449219 -50.949219 L 8.449219 -4.664062 C 8.449219 -2.199219 6.421875 -0.175781 3.871094 -0.175781 C 3.785156 -0.175781 3.785156 -0.175781 3.785156 -0.175781 C 3.785156 -0.0898438 3.785156 -0.0898438 3.785156 -0.0898438 C 3.695312 -0.0898438 3.695312 -0.0898438 3.695312 -0.0898438 C 3.695312 0 3.695312 0 3.695312 0 C 3.695312 0 3.695312 0.0898438 3.695312 0.0898438 C 3.695312 0.175781 3.695312 0.175781 3.695312 0.265625 C 3.785156 0.265625 3.785156 0.351562 3.871094 0.351562 L 3.960938 0.351562 L 19.007812 0.265625 C 19.09375 0.265625 19.09375 0.265625 19.183594 0.175781 C 19.183594 0.175781 19.269531 0.0898438 19.269531 0 C 19.269531 -0.0898438 19.09375 -0.175781 19.007812 -0.175781 L 7.039062 -0.175781 C 11.441406 -1.582031 14.429688 -5.632812 14.429688 -10.296875 L 14.429688 -15.046875 C 14.519531 -22.878906 20.855469 -29.214844 28.6875 -29.214844 L 32.117188 -29.214844 C 41.007812 -29.214844 48.222656 -36.429688 48.3125 -45.320312 C 48.222656 -54.292969 41.007812 -61.511719 32.117188 -61.511719 Z M 14.429688 -18.742188 L 14.429688 -56.496094 C 14.429688 -58.78125 16.191406 -60.804688 18.566406 -60.980469 C 18.65625 -60.980469 18.832031 -61.070312 19.007812 -61.070312 L 28.6875 -61.070312 C 35.464844 -61.070312 40.917969 -54.03125 40.917969 -45.320312 C 40.917969 -36.695312 35.464844 -29.65625 28.6875 -29.65625 C 22 -29.65625 16.191406 -25.167969 14.429688 -18.742188 Z M 14.429688 -18.742188 "/></g></g></g><g fill="#000000" fill-opacity="1"><g transform="translate(278.48221, 209.387228)"><g><path d="M 54.824219 -61.511719 L 39.6875 -61.511719 C 39.597656 -61.511719 39.511719 -61.421875 39.511719 -61.246094 C 39.511719 -61.160156 39.597656 -61.070312 39.6875 -61.070312 L 51.65625 -61.070312 C 49.894531 -60.542969 48.3125 -59.574219 46.992188 -58.167969 L 47.78125 -59.75 C 47.871094 -59.925781 47.871094 -60.015625 47.695312 -60.101562 C 47.605469 -60.101562 47.429688 -60.101562 47.429688 -60.015625 L 29.390625 -24.109375 L 13.199219 -56.40625 C 13.023438 -56.933594 12.847656 -57.375 12.847656 -57.902344 C 12.847656 -59.664062 14.253906 -61.070312 16.015625 -61.070312 C 16.105469 -61.070312 16.28125 -61.160156 16.28125 -61.246094 C 16.28125 -61.421875 16.105469 -61.511719 16.015625 -61.511719 L 0.878906 -61.511719 C 0.792969 -61.511719 0.703125 -61.421875 0.703125 -61.246094 C 0.703125 -61.160156 0.792969 -61.070312 0.878906 -61.070312 L 13.464844 -61.070312 C 10.472656 -59.925781 8.535156 -57.199219 8.535156 -54.03125 C 8.535156 -52.886719 8.800781 -51.742188 9.328125 -50.6875 L 23.320312 -22.878906 L 23.320312 -4.664062 C 23.320312 -2.199219 21.296875 -0.175781 18.742188 -0.175781 C 18.742188 -0.175781 18.65625 -0.175781 18.65625 -0.175781 C 18.65625 -0.0898438 18.65625 -0.0898438 18.65625 -0.0898438 C 18.65625 -0.0898438 18.65625 -0.0898438 18.566406 -0.0898438 C 18.566406 0 18.566406 0 18.566406 0.0898438 C 18.566406 0.175781 18.566406 0.175781 18.566406 0.265625 C 18.65625 0.265625 18.742188 0.351562 18.742188 0.351562 L 18.832031 0.351562 L 33.878906 0.265625 C 33.96875 0.265625 34.054688 0.265625 34.054688 0.175781 C 34.144531 0.175781 34.144531 0.0898438 34.144531 0.0898438 C 34.144531 -0.0898438 34.054688 -0.175781 33.878906 -0.175781 L 21.910156 -0.175781 C 26.3125 -1.496094 29.304688 -5.632812 29.304688 -10.296875 L 29.304688 -22.878906 L 29.65625 -23.496094 L 45.757812 -55.703125 C 47.605469 -59.046875 51.039062 -61.070312 54.824219 -61.070312 C 55 -61.070312 55.085938 -61.160156 55.085938 -61.246094 C 55.085938 -61.335938 55 -61.421875 55 -61.421875 C 54.910156 -61.511719 54.910156 -61.511719 54.824219 -61.511719 Z M 54.824219 -61.511719 "/></g></g></g><g fill="#000000" fill-opacity="1"><g transform="translate(133.492203, 238.430728)"><g><path d="M 6.6875 -5.125 C 6.6875 -5 6.640625 -4.9375 6.546875 -4.9375 C 6.472656 -4.9375 6.410156 -5.015625 6.359375 -5.171875 C 6.304688 -5.335938 6.207031 -5.488281 6.0625 -5.625 C 5.925781 -5.757812 5.757812 -5.878906 5.5625 -5.984375 C 5.15625 -6.179688 4.71875 -6.28125 4.25 -6.28125 C 3.789062 -6.28125 3.390625 -6.21875 3.046875 -6.09375 C 2.703125 -5.96875 2.410156 -5.785156 2.171875 -5.546875 C 1.660156 -5.046875 1.40625 -4.375 1.40625 -3.53125 C 1.40625 -2.59375 1.691406 -1.820312 2.265625 -1.21875 C 2.835938 -0.601562 3.566406 -0.296875 4.453125 -0.296875 C 5.441406 -0.296875 6.207031 -0.753906 6.75 -1.671875 C 6.78125 -1.722656 6.816406 -1.753906 6.859375 -1.765625 C 6.898438 -1.765625 6.9375 -1.722656 6.96875 -1.640625 C 7 -1.566406 7.015625 -1.476562 7.015625 -1.375 C 7.015625 -1.21875 6.875 -1.007812 6.59375 -0.75 C 6.320312 -0.488281 5.988281 -0.273438 5.59375 -0.109375 C 5.195312 0.046875 4.734375 0.125 4.203125 0.125 C 3.679688 0.125 3.1875 0.0390625 2.71875 -0.125 C 2.25 -0.300781 1.851562 -0.535156 1.53125 -0.828125 C 0.832031 -1.453125 0.484375 -2.226562 0.484375 -3.15625 C 0.484375 -4.207031 0.832031 -5.050781 1.53125 -5.6875 C 2.226562 -6.34375 3.144531 -6.671875 4.28125 -6.671875 C 5.101562 -6.671875 5.78125 -6.5625 6.3125 -6.34375 C 6.414062 -6.289062 6.488281 -6.242188 6.53125 -6.203125 C 6.59375 -6.109375 6.628906 -5.972656 6.640625 -5.796875 C 6.648438 -5.617188 6.65625 -5.492188 6.65625 -5.421875 C 6.675781 -5.265625 6.6875 -5.164062 6.6875 -5.125 Z M 6.6875 -5.125 "/></g></g></g><g fill="#000000" fill-opacity="1"><g transform="translate(148.755028, 238.430728)"><g><path d="M 0.59375 0.078125 C 0.414062 0.078125 0.328125 0.015625 0.328125 -0.109375 C 0.328125 -0.203125 0.390625 -0.25 0.515625 -0.25 L 0.75 -0.21875 C 0.945312 -0.21875 1.078125 -0.328125 1.140625 -0.546875 C 1.191406 -0.734375 1.21875 -1.066406 1.21875 -1.546875 L 1.21875 -5 C 1.21875 -5.476562 1.195312 -5.789062 1.15625 -5.9375 C 1.113281 -6.082031 1.0625 -6.179688 1 -6.234375 C 0.9375 -6.285156 0.851562 -6.3125 0.75 -6.3125 L 0.515625 -6.296875 C 0.390625 -6.296875 0.328125 -6.34375 0.328125 -6.4375 C 0.328125 -6.5625 0.414062 -6.625 0.59375 -6.625 C 0.78125 -6.625 0.953125 -6.609375 1.109375 -6.578125 C 1.273438 -6.554688 1.441406 -6.546875 1.609375 -6.546875 C 1.785156 -6.546875 1.953125 -6.554688 2.109375 -6.578125 C 2.265625 -6.609375 2.429688 -6.625 2.609375 -6.625 C 2.785156 -6.625 2.875 -6.5625 2.875 -6.4375 C 2.875 -6.34375 2.816406 -6.296875 2.703125 -6.296875 L 2.46875 -6.3125 C 2.269531 -6.3125 2.140625 -6.203125 2.078125 -5.984375 C 2.023438 -5.816406 2 -5.488281 2 -5 L 2 -2.234375 C 2 -1.523438 2.015625 -0.9375 2.046875 -0.46875 C 2.273438 -0.394531 2.535156 -0.359375 2.828125 -0.359375 C 3.117188 -0.359375 3.367188 -0.375 3.578125 -0.40625 C 3.796875 -0.445312 3.984375 -0.5 4.140625 -0.5625 C 4.429688 -0.6875 4.65625 -0.890625 4.8125 -1.171875 C 4.882812 -1.285156 4.953125 -1.34375 5.015625 -1.34375 C 5.078125 -1.34375 5.109375 -1.296875 5.109375 -1.203125 C 5.109375 -1.160156 5.097656 -1.113281 5.078125 -1.0625 C 5.054688 -0.96875 5.019531 -0.835938 4.96875 -0.671875 C 4.914062 -0.503906 4.875 -0.375 4.84375 -0.28125 C 4.8125 -0.195312 4.773438 -0.125 4.734375 -0.0625 C 4.660156 0.0390625 4.550781 0.09375 4.40625 0.09375 C 4.269531 0.09375 4.140625 0.09375 4.015625 0.09375 C 3.898438 0.09375 3.773438 0.0859375 3.640625 0.078125 C 3.503906 0.078125 3.359375 0.0703125 3.203125 0.0625 C 3.046875 0.0507812 2.867188 0.0390625 2.671875 0.03125 C 2.472656 0.03125 2.296875 0.0234375 2.140625 0.015625 C 1.992188 0.00390625 1.847656 0 1.703125 0 C 1.566406 0 1.445312 0.00390625 1.34375 0.015625 C 1.25 0.0234375 1.160156 0.03125 1.078125 0.03125 C 1.003906 0.0390625 0.929688 0.0507812 0.859375 0.0625 C 0.785156 0.0703125 0.695312 0.078125 0.59375 0.078125 Z M 0.59375 0.078125 "/></g></g></g><g fill="#000000" fill-opacity="1"><g transform="translate(162.109426, 238.430728)"><g><path d="M 0.484375 -3.3125 C 0.484375 -3.800781 0.578125 -4.25 0.765625 -4.65625 C 0.953125 -5.070312 1.203125 -5.425781 1.515625 -5.71875 C 1.828125 -6.019531 2.1875 -6.253906 2.59375 -6.421875 C 3.007812 -6.585938 3.457031 -6.671875 3.9375 -6.671875 C 4.414062 -6.671875 4.859375 -6.582031 5.265625 -6.40625 C 5.679688 -6.226562 6.035156 -5.988281 6.328125 -5.6875 C 6.941406 -5.039062 7.25 -4.21875 7.25 -3.21875 C 7.25 -2.269531 6.929688 -1.476562 6.296875 -0.84375 C 5.648438 -0.195312 4.828125 0.125 3.828125 0.125 C 2.847656 0.125 2.046875 -0.203125 1.421875 -0.859375 C 0.796875 -1.503906 0.484375 -2.320312 0.484375 -3.3125 Z M 1.328125 -3.578125 C 1.328125 -3.160156 1.394531 -2.742188 1.53125 -2.328125 C 1.664062 -1.921875 1.863281 -1.566406 2.125 -1.265625 C 2.664062 -0.609375 3.351562 -0.28125 4.1875 -0.28125 C 4.820312 -0.28125 5.34375 -0.519531 5.75 -1 C 6.175781 -1.5 6.390625 -2.148438 6.390625 -2.953125 C 6.390625 -3.910156 6.132812 -4.703125 5.625 -5.328125 C 5.113281 -5.953125 4.472656 -6.265625 3.703125 -6.265625 C 3.054688 -6.265625 2.503906 -6.019531 2.046875 -5.53125 C 1.566406 -5.019531 1.328125 -4.367188 1.328125 -3.578125 Z M 1.328125 -3.578125 "/></g></g></g><g fill="#000000" fill-opacity="1"><g transform="translate(177.845706, 238.430728)"><g><path d="M 2 0.078125 C 1.789062 0.078125 1.6875 0.015625 1.6875 -0.109375 C 1.6875 -0.203125 1.742188 -0.25 1.859375 -0.25 L 2.09375 -0.21875 C 2.289062 -0.21875 2.421875 -0.328125 2.484375 -0.546875 C 2.546875 -0.734375 2.578125 -1.066406 2.578125 -1.546875 L 2.578125 -6.109375 L 2.453125 -6.109375 C 1.878906 -6.109375 1.421875 -6.050781 1.078125 -5.9375 C 0.847656 -5.851562 0.691406 -5.707031 0.609375 -5.5 C 0.546875 -5.351562 0.476562 -5.28125 0.40625 -5.28125 C 0.3125 -5.28125 0.265625 -5.332031 0.265625 -5.4375 C 0.265625 -5.476562 0.269531 -5.519531 0.28125 -5.5625 C 0.300781 -5.601562 0.320312 -5.648438 0.34375 -5.703125 C 0.394531 -5.859375 0.425781 -6.019531 0.4375 -6.1875 C 0.445312 -6.363281 0.460938 -6.476562 0.484375 -6.53125 C 0.515625 -6.59375 0.550781 -6.625 0.59375 -6.625 C 0.644531 -6.625 0.691406 -6.617188 0.734375 -6.609375 C 0.773438 -6.597656 0.832031 -6.585938 0.90625 -6.578125 C 1.101562 -6.554688 1.347656 -6.546875 1.640625 -6.546875 L 4.734375 -6.546875 C 4.984375 -6.546875 5.160156 -6.554688 5.265625 -6.578125 C 5.378906 -6.609375 5.457031 -6.625 5.5 -6.625 C 5.613281 -6.625 5.671875 -6.570312 5.671875 -6.46875 C 5.671875 -6.414062 5.660156 -6.351562 5.640625 -6.28125 C 5.585938 -6.125 5.550781 -5.988281 5.53125 -5.875 C 5.519531 -5.757812 5.507812 -5.664062 5.5 -5.59375 C 5.488281 -5.519531 5.472656 -5.460938 5.453125 -5.421875 C 5.429688 -5.347656 5.394531 -5.3125 5.34375 -5.3125 C 5.289062 -5.3125 5.253906 -5.328125 5.234375 -5.359375 C 5.222656 -5.398438 5.207031 -5.472656 5.1875 -5.578125 C 5.175781 -5.691406 5.148438 -5.78125 5.109375 -5.84375 C 5.066406 -5.914062 5.015625 -5.96875 4.953125 -6 C 4.835938 -6.070312 4.648438 -6.109375 4.390625 -6.109375 L 3.34375 -6.109375 L 3.34375 -1.546875 C 3.34375 -1.054688 3.363281 -0.738281 3.40625 -0.59375 C 3.457031 -0.457031 3.515625 -0.359375 3.578125 -0.296875 C 3.640625 -0.242188 3.722656 -0.21875 3.828125 -0.21875 L 4.0625 -0.25 C 4.175781 -0.25 4.234375 -0.203125 4.234375 -0.109375 C 4.234375 0.015625 4.128906 0.078125 3.921875 0.078125 C 3.816406 0.078125 3.703125 0.0664062 3.578125 0.046875 C 3.191406 -0.015625 2.859375 -0.0234375 2.578125 0.015625 C 2.296875 0.0546875 2.101562 0.078125 2 0.078125 Z M 2 0.078125 "/></g></g></g><g fill="#000000" fill-opacity="1"><g transform="translate(191.776049, 238.430728)"><g><path d="M 0.65625 0.078125 C 0.4375 0.078125 0.328125 0.015625 0.328125 -0.109375 C 0.328125 -0.203125 0.390625 -0.25 0.515625 -0.25 L 0.75 -0.21875 C 0.925781 -0.21875 1.046875 -0.304688 1.109375 -0.484375 C 1.179688 -0.671875 1.21875 -1.023438 1.21875 -1.546875 L 1.21875 -5 C 1.21875 -5.53125 1.191406 -5.863281 1.140625 -6 C 1.085938 -6.144531 1.03125 -6.234375 0.96875 -6.265625 C 0.90625 -6.296875 0.832031 -6.3125 0.75 -6.3125 L 0.515625 -6.296875 C 0.390625 -6.296875 0.328125 -6.34375 0.328125 -6.4375 C 0.328125 -6.5625 0.414062 -6.625 0.59375 -6.625 C 0.78125 -6.625 0.953125 -6.609375 1.109375 -6.578125 C 1.273438 -6.554688 1.441406 -6.546875 1.609375 -6.546875 C 1.785156 -6.546875 1.953125 -6.554688 2.109375 -6.578125 C 2.265625 -6.609375 2.429688 -6.625 2.609375 -6.625 C 2.785156 -6.625 2.875 -6.5625 2.875 -6.4375 C 2.875 -6.34375 2.816406 -6.296875 2.703125 -6.296875 L 2.46875 -6.3125 C 2.289062 -6.3125 2.171875 -6.226562 2.109375 -6.0625 C 2.035156 -5.875 2 -5.519531 2 -5 L 2 -3.890625 L 5.4375 -3.890625 L 5.4375 -5 C 5.4375 -5.53125 5.410156 -5.863281 5.359375 -6 C 5.304688 -6.144531 5.25 -6.234375 5.1875 -6.265625 C 5.125 -6.296875 5.050781 -6.3125 4.96875 -6.3125 L 4.734375 -6.296875 C 4.609375 -6.296875 4.546875 -6.34375 4.546875 -6.4375 C 4.546875 -6.5625 4.632812 -6.625 4.8125 -6.625 C 5 -6.625 5.171875 -6.609375 5.328125 -6.578125 C 5.492188 -6.554688 5.660156 -6.546875 5.828125 -6.546875 C 6.003906 -6.546875 6.171875 -6.554688 6.328125 -6.578125 C 6.484375 -6.609375 6.648438 -6.625 6.828125 -6.625 C 7.003906 -6.625 7.09375 -6.5625 7.09375 -6.4375 C 7.09375 -6.34375 7.035156 -6.296875 6.921875 -6.296875 L 6.6875 -6.3125 C 6.507812 -6.3125 6.390625 -6.226562 6.328125 -6.0625 C 6.253906 -5.875 6.21875 -5.519531 6.21875 -5 L 6.21875 -1.546875 C 6.21875 -1.015625 6.242188 -0.675781 6.296875 -0.53125 C 6.347656 -0.394531 6.40625 -0.304688 6.46875 -0.265625 C 6.53125 -0.234375 6.601562 -0.21875 6.6875 -0.21875 L 6.921875 -0.25 C 7.035156 -0.25 7.09375 -0.203125 7.09375 -0.109375 C 7.09375 0.015625 6.988281 0.078125 6.78125 0.078125 C 6.675781 0.078125 6.566406 0.0664062 6.453125 0.046875 C 6.265625 0.015625 6.0625 0 5.84375 0 C 5.625 0 5.429688 0.0078125 5.265625 0.03125 C 5.109375 0.0625 4.976562 0.078125 4.875 0.078125 C 4.65625 0.078125 4.546875 0.015625 4.546875 -0.109375 C 4.546875 -0.203125 4.609375 -0.25 4.734375 -0.25 L 4.96875 -0.21875 C 5.144531 -0.21875 5.265625 -0.304688 5.328125 -0.484375 C 5.398438 -0.671875 5.4375 -1.023438 5.4375 -1.546875 L 5.4375 -3.421875 L 2 -3.421875 L 2 -1.546875 C 2 -1.015625 2.023438 -0.675781 2.078125 -0.53125 C 2.128906 -0.394531 2.1875 -0.304688 2.25 -0.265625 C 2.3125 -0.234375 2.382812 -0.21875 2.46875 -0.21875 L 2.703125 -0.25 C 2.816406 -0.25 2.875 -0.203125 2.875 -0.109375 C 2.875 0.015625 2.769531 0.078125 2.5625 0.078125 C 2.457031 0.078125 2.347656 0.0664062 2.234375 0.046875 C 1.835938 -0.015625 1.5 -0.0234375 1.21875 0.015625 C 0.945312 0.0546875 0.757812 0.078125 0.65625 0.078125 Z M 0.65625 0.078125 "/></g></g></g><g fill="#000000" fill-opacity="1"><g transform="translate(207.204824, 238.430728)"><g><path d="M 0.71875 0.078125 C 0.5 0.078125 0.390625 0.015625 0.390625 -0.109375 C 0.390625 -0.203125 0.453125 -0.25 0.578125 -0.25 L 0.8125 -0.21875 C 0.988281 -0.21875 1.109375 -0.304688 1.171875 -0.484375 C 1.253906 -0.671875 1.296875 -1.023438 1.296875 -1.546875 L 1.265625 -5 C 1.265625 -5.53125 1.234375 -5.863281 1.171875 -6 C 1.117188 -6.144531 1.0625 -6.234375 1 -6.265625 C 0.9375 -6.296875 0.863281 -6.3125 0.78125 -6.3125 L 0.546875 -6.296875 C 0.429688 -6.296875 0.375 -6.34375 0.375 -6.4375 C 0.375 -6.5625 0.460938 -6.625 0.640625 -6.625 C 0.816406 -6.625 0.984375 -6.609375 1.140625 -6.578125 C 1.304688 -6.554688 1.476562 -6.546875 1.65625 -6.546875 C 1.832031 -6.546875 2 -6.554688 2.15625 -6.578125 C 2.3125 -6.609375 2.476562 -6.625 2.65625 -6.625 C 2.84375 -6.625 2.9375 -6.5625 2.9375 -6.4375 C 2.9375 -6.34375 2.875 -6.296875 2.75 -6.296875 L 2.515625 -6.3125 C 2.335938 -6.3125 2.21875 -6.226562 2.15625 -6.0625 C 2.082031 -5.875 2.046875 -5.519531 2.046875 -5 L 2.0625 -1.546875 C 2.0625 -1.023438 2.09375 -0.691406 2.15625 -0.546875 C 2.21875 -0.398438 2.28125 -0.304688 2.34375 -0.265625 C 2.414062 -0.234375 2.492188 -0.21875 2.578125 -0.21875 L 2.8125 -0.25 C 2.925781 -0.25 2.984375 -0.203125 2.984375 -0.109375 C 2.984375 0.015625 2.878906 0.078125 2.671875 0.078125 C 2.566406 0.078125 2.453125 0.0664062 2.328125 0.046875 C 1.921875 -0.015625 1.578125 -0.0234375 1.296875 0.015625 C 1.015625 0.0546875 0.820312 0.078125 0.71875 0.078125 Z M 0.71875 0.078125 "/></g></g></g><g fill="#000000" fill-opacity="1"><g transform="translate(218.514115, 238.430728)"><g><path d="M 0.671875 0.078125 C 0.453125 0.078125 0.34375 0.015625 0.34375 -0.109375 C 0.34375 -0.203125 0.398438 -0.25 0.515625 -0.25 L 0.765625 -0.21875 C 0.960938 -0.21875 1.09375 -0.328125 1.15625 -0.546875 C 1.207031 -0.734375 1.234375 -1.066406 1.234375 -1.546875 L 1.234375 -4.984375 C 1.234375 -5.460938 1.210938 -5.773438 1.171875 -5.921875 C 1.128906 -6.066406 1.070312 -6.164062 1 -6.21875 C 0.9375 -6.269531 0.859375 -6.296875 0.765625 -6.296875 L 0.515625 -6.28125 C 0.398438 -6.28125 0.34375 -6.328125 0.34375 -6.421875 C 0.34375 -6.546875 0.453125 -6.609375 0.671875 -6.609375 L 1.296875 -6.546875 C 1.441406 -6.546875 1.566406 -6.554688 1.671875 -6.578125 L 6.171875 -1.34375 L 6.171875 -5 C 6.171875 -5.46875 6.144531 -5.773438 6.09375 -5.921875 C 6.039062 -6.078125 5.984375 -6.179688 5.921875 -6.234375 C 5.859375 -6.285156 5.773438 -6.3125 5.671875 -6.3125 L 5.421875 -6.296875 C 5.304688 -6.296875 5.25 -6.34375 5.25 -6.4375 C 5.25 -6.5625 5.351562 -6.625 5.5625 -6.625 C 5.644531 -6.625 5.753906 -6.613281 5.890625 -6.59375 C 6.066406 -6.5625 6.222656 -6.546875 6.359375 -6.546875 C 6.503906 -6.546875 6.640625 -6.554688 6.765625 -6.578125 C 6.898438 -6.609375 7.054688 -6.625 7.234375 -6.625 C 7.421875 -6.625 7.515625 -6.5625 7.515625 -6.4375 C 7.515625 -6.34375 7.453125 -6.296875 7.328125 -6.296875 L 7.09375 -6.3125 C 6.894531 -6.3125 6.765625 -6.203125 6.703125 -5.984375 C 6.640625 -5.816406 6.609375 -5.488281 6.609375 -5 L 6.609375 -0.0625 C 6.609375 0.0507812 6.597656 0.125 6.578125 0.15625 C 6.566406 0.1875 6.539062 0.203125 6.5 0.203125 C 6.4375 0.203125 6.34375 0.132812 6.21875 0 L 1.71875 -5.203125 L 1.71875 -1.546875 C 1.71875 -1.054688 1.738281 -0.738281 1.78125 -0.59375 C 1.820312 -0.457031 1.875 -0.359375 1.9375 -0.296875 C 2 -0.242188 2.082031 -0.21875 2.1875 -0.21875 L 2.421875 -0.25 C 2.546875 -0.25 2.609375 -0.203125 2.609375 -0.109375 C 2.609375 0.015625 2.515625 0.078125 2.328125 0.078125 C 2.140625 0.078125 1.972656 0.0625 1.828125 0.03125 C 1.679688 0.0078125 1.539062 0 1.40625 0 C 1.269531 0 1.132812 0.0078125 1 0.03125 C 0.863281 0.0625 0.753906 0.078125 0.671875 0.078125 Z M 0.671875 0.078125 "/></g></g></g><g fill="#000000" fill-opacity="1"><g transform="translate(234.103971, 238.430728)"><g><path d="M 6.859375 -3.109375 C 6.992188 -3.109375 7.0625 -3.0625 7.0625 -2.96875 C 7.0625 -2.925781 7.046875 -2.890625 7.015625 -2.859375 C 6.984375 -2.835938 6.9375 -2.816406 6.875 -2.796875 C 6.820312 -2.773438 6.78125 -2.742188 6.75 -2.703125 C 6.71875 -2.660156 6.691406 -2.601562 6.671875 -2.53125 C 6.640625 -2.382812 6.625 -2.210938 6.625 -2.015625 C 6.625 -1.816406 6.625 -1.6875 6.625 -1.625 C 6.625 -1.5625 6.628906 -1.492188 6.640625 -1.421875 C 6.660156 -1.179688 6.675781 -1.023438 6.6875 -0.953125 C 6.707031 -0.878906 6.71875 -0.804688 6.71875 -0.734375 C 6.71875 -0.671875 6.671875 -0.597656 6.578125 -0.515625 C 6.492188 -0.441406 6.382812 -0.367188 6.25 -0.296875 C 6.113281 -0.234375 5.953125 -0.175781 5.765625 -0.125 C 5.585938 -0.0703125 5.398438 -0.0234375 5.203125 0.015625 C 4.796875 0.0976562 4.425781 0.140625 4.09375 0.140625 C 2.925781 0.140625 2.003906 -0.191406 1.328125 -0.859375 C 0.710938 -1.472656 0.40625 -2.25 0.40625 -3.1875 C 0.40625 -4.238281 0.742188 -5.082031 1.421875 -5.71875 C 2.109375 -6.363281 3.019531 -6.6875 4.15625 -6.6875 C 5 -6.6875 5.664062 -6.582031 6.15625 -6.375 C 6.257812 -6.332031 6.328125 -6.289062 6.359375 -6.25 C 6.429688 -6.15625 6.472656 -6.015625 6.484375 -5.828125 C 6.492188 -5.648438 6.5 -5.523438 6.5 -5.453125 C 6.519531 -5.285156 6.53125 -5.179688 6.53125 -5.140625 C 6.53125 -5.015625 6.484375 -4.953125 6.390625 -4.953125 C 6.304688 -4.953125 6.238281 -5.03125 6.1875 -5.1875 C 6.144531 -5.351562 6.050781 -5.507812 5.90625 -5.65625 C 5.769531 -5.800781 5.601562 -5.921875 5.40625 -6.015625 C 5.019531 -6.210938 4.585938 -6.3125 4.109375 -6.3125 C 3.640625 -6.3125 3.238281 -6.242188 2.90625 -6.109375 C 2.570312 -5.984375 2.289062 -5.800781 2.0625 -5.5625 C 1.570312 -5.0625 1.328125 -4.382812 1.328125 -3.53125 C 1.328125 -2.613281 1.609375 -1.84375 2.171875 -1.21875 C 2.429688 -0.914062 2.742188 -0.679688 3.109375 -0.515625 C 3.472656 -0.347656 3.867188 -0.265625 4.296875 -0.265625 C 4.972656 -0.265625 5.414062 -0.390625 5.625 -0.640625 C 5.757812 -0.816406 5.828125 -1.050781 5.828125 -1.34375 L 5.828125 -2.390625 C 5.828125 -2.546875 5.789062 -2.644531 5.71875 -2.6875 C 5.625 -2.726562 5.492188 -2.75 5.328125 -2.75 C 5.046875 -2.75 4.90625 -2.8125 4.90625 -2.9375 C 4.90625 -3.0625 5.019531 -3.125 5.25 -3.125 L 6.21875 -3.0625 Z M 6.859375 -3.109375 "/></g></g></g></svg>